<svg width="100" height="100" viewBox="0 0 100 100" fill="none" xmlns="http://www.w3.org/2000/svg">
<path fill-rule="evenodd" clip-rule="evenodd" d="M68.625 100V61.275H81.625L83.57 46.185H68.62V36.55C68.62 32.18 69.835 29.2 76.105 29.2H84.095V15.7C80.2258 15.2843 76.3365 15.084 72.445 15.1C60.925 15.1 53.04 22.135 53.04 35.05V46.185H40V61.275H53.035V100H5.52C2.47 100 0 97.53 0 94.48V5.52C0 2.47 2.47 0 5.52 0H94.48C97.53 0 100 2.47 100 5.52V94.48C100 97.53 97.53 100 94.48 100H68.625Z" fill="#00FF80"/>
</svg>
