<svg width="100" height="90" viewBox="0 0 100 90" fill="none" xmlns="http://www.w3.org/2000/svg">
<path d="M46.6098 89.1228L46.6191 89.1278C48.7184 90.2907 51.2816 90.2907 53.3809 89.1278L53.3902 89.1228C53.3938 89.1208 53.3979 89.1181 53.4028 89.1153L53.4173 89.1074L53.4407 89.0946L53.4742 89.0757L53.5031 89.0592L53.5619 89.0258C53.6631 88.9685 53.8045 88.8879 53.9829 88.7845C54.3396 88.5776 54.846 88.279 55.4805 87.8923C56.749 87.1193 58.5354 85.9911 60.6664 84.5351C64.9157 81.6316 70.6033 77.3807 76.3184 71.9982C87.4973 61.4697 100 45.457 100 25.8962C100 21.6428 98.7762 15.3997 94.8924 10.0204C90.7555 4.29057 83.8931 0 73.946 0C64.2095 0.000102908 56.538 4.08086 51.3672 9.13648C50.8969 9.59634 50.4407 10.0715 50 10.5593C49.5593 10.0715 49.1031 9.59634 48.6328 9.13648C43.462 4.08086 35.7905 0.000104753 26.054 0C16.1069 0 9.24447 4.29057 5.10759 10.0204C1.22385 15.3997 0 21.6429 0 25.8962C0 45.457 12.5027 61.4697 23.6816 71.9982C29.3967 77.3807 35.0843 81.6316 39.3336 84.5351C41.4646 85.9911 43.251 87.1193 44.5195 87.8923C45.154 88.279 45.6604 88.5776 46.0171 88.7845C46.1955 88.8879 46.3369 88.9685 46.4381 89.0258L46.5441 89.086L46.5593 89.0946C46.5744 89.1031 46.5873 89.1098 46.5972 89.1153L46.6098 89.1228ZM50 83.2076C50 83.2076 6.89655 59.3279 6.89655 25.8962C6.89655 19.5299 10.7283 6.79246 26.054 6.79246L26.7671 6.80158C41.6466 7.18879 50 19.6294 50 25.8962C50 19.53 58.6205 6.79266 73.946 6.79246C89.2717 6.79246 93.1034 19.5299 93.1034 25.8962C93.1034 59.3279 50 83.2076 50 83.2076Z" fill="url(#paint0_linear_180_272)"/>
<path fill-rule="evenodd" clip-rule="evenodd" d="M6.89655 25.8962C6.89655 59.3279 50 83.2076 50 83.2076C50 83.2076 93.1034 59.3279 93.1034 25.8962C93.1034 19.5299 89.2717 6.79246 73.946 6.79246C58.6205 6.79266 50 19.53 50 25.8962C50 19.6294 41.6466 7.18879 26.7671 6.80158L26.054 6.79246C10.7283 6.79246 6.89655 19.5299 6.89655 25.8962Z" fill="url(#paint1_linear_180_272)" fill-opacity="0.5"/>
<path d="M70.9293 32.0813C75.3164 33.8588 80.0743 35.3978 85.203 27.7575C85.4697 27.3601 86.0994 27.5007 86.1302 27.9783C86.8903 39.7385 80.6285 46.8473 73.9091 54.4106C73.5584 54.8053 72.8413 54.4429 72.9163 53.9203C73.8962 47.0925 72.0351 37.2345 70.1918 32.8726C70.0031 32.426 70.48 31.8993 70.9293 32.0813Z" fill="white"/>
<path d="M84 23.5C84 27.6421 80.6421 31 76.5 31C72.3579 31 69 27.6421 69 23.5C69 19.3579 72.3579 16 76.5 16C80.6421 16 84 19.3579 84 23.5Z" fill="white"/>
<defs>
<linearGradient id="paint0_linear_180_272" x1="0" y1="0" x2="34.9428" y2="110.561" gradientUnits="userSpaceOnUse">
<stop stop-color="#CFE0B8"/>
<stop offset="0.33" stop-color="#85C270"/>
<stop offset="0.67" stop-color="#196620"/>
<stop offset="1" stop-color="#033016"/>
</linearGradient>
<linearGradient id="paint1_linear_180_272" x1="0" y1="0" x2="34.9428" y2="110.561" gradientUnits="userSpaceOnUse">
<stop stop-color="#CFE0B8"/>
<stop offset="0.33" stop-color="#85C270"/>
<stop offset="0.67" stop-color="#196620"/>
<stop offset="1" stop-color="#033016"/>
</linearGradient>
</defs>
</svg>
