<svg width="110" height="110" viewBox="0 0 110 110" fill="none" xmlns="http://www.w3.org/2000/svg">
<path d="M77.2222 5C92.5556 5 105 17.4444 105 32.7778V77.2222C105 92.5556 92.5556 105 77.2222 105H32.7778C17.4444 105 5 92.5556 5 77.2222V32.7778C5 17.4444 17.4444 5 32.7778 5H55H77.2222Z" stroke="#00FF80" stroke-width="10" stroke-linecap="round" stroke-linejoin="round"/>
<path d="M55.0054 32.778C67.2832 32.778 77.2277 42.7225 77.2277 55.0002C77.2277 67.278 67.2832 77.2225 55.0054 77.2225C42.7277 77.2225 32.7832 67.278 32.7832 55.0002C32.7832 42.7225 42.7277 32.778 55.0054 32.778Z" stroke="#00FF80" stroke-width="10" stroke-linecap="round" stroke-linejoin="round"/>
<path d="M82.7816 35.5552C87.384 35.5552 91.1149 31.8243 91.1149 27.2219C91.1149 22.6195 87.384 18.8885 82.7816 18.8885C78.1792 18.8885 74.4482 22.6195 74.4482 27.2219C74.4482 31.8243 78.1792 35.5552 82.7816 35.5552Z" fill="#00FF80"/>
</svg>
