<svg width="840" height="204" viewBox="0 0 840 204" fill="none" xmlns="http://www.w3.org/2000/svg">
<path fill-rule="evenodd" clip-rule="evenodd" d="M504 43.6922C534.91 43.6922 561.144 69.8665 561.144 100.507C561.144 131.081 534.808 157.197 504 157.197C473.148 157.197 446.731 131.155 446.731 100.507C446.731 69.496 473.356 43.6924 504 43.6922ZM504 53.6597C478.444 53.6599 456.756 74.9015 456.756 100.507C456.756 125.763 478.587 147.23 504 147.23C529.043 147.23 551.119 125.82 551.119 100.507C551.119 75.363 529.329 53.6597 504 53.6597Z" fill="white"/>
<path fill-rule="evenodd" clip-rule="evenodd" d="M652 53.6597C698.393 53.66 696.022 125.177 652 125.177H616.034V53.6597H652ZM626.06 115.209H652C684.591 115.209 685.314 64.0152 652 63.6273H626.06V115.209Z" fill="white"/>
<path fill-rule="evenodd" clip-rule="evenodd" d="M570.346 25.2056C570.346 12.3427 580.773 1.91526 593.636 1.91526H652.302C668.045 1.9153 683.55 6.63429 696.764 15.1378C696.764 7.8352 702.684 1.91526 709.987 1.91526H815C828.807 1.91526 840 13.1081 840 26.9153V57.6089H760.692C756.322 57.6089 752.78 61.1511 752.78 65.5206C752.78 69.8901 756.322 73.4323 760.692 73.4323H786.804C800.611 73.4323 811.804 84.6252 811.804 98.4323V104.126C811.804 117.933 800.611 129.126 786.804 129.126H760.63C756.294 129.126 752.78 132.64 752.78 136.975C752.78 141.311 756.294 144.825 760.63 144.825H840V175.518C840 189.326 828.807 200.518 815 200.518H721.764C707.957 200.518 696.764 189.326 696.764 175.518V151.649C675.387 165.375 651.112 164.76 626.362 164.76V175.518C626.362 189.326 615.169 200.518 601.362 200.518H592.134C580.101 200.518 570.346 190.763 570.346 178.73C531.945 212.576 472.279 212.307 434.177 178.62C434.177 190.714 424.373 200.518 412.279 200.518H403.161C389.354 200.518 378.161 189.326 378.161 175.518V129.126H326.406V175.518C326.406 189.326 315.213 200.518 301.406 200.518H101.978L84.5872 160.543L39.9288 160.82V200.518H0V27.1644C0 13.3573 11.1929 2.16445 25 2.16445H79.8565C104.43 2.16445 128.128 14.0304 143.13 33.4756V27.1305C143.13 13.3366 154.302 2.14926 168.096 2.13051L301.372 1.9493C315.192 1.93051 326.406 13.1289 326.406 26.9493V73.4323H378.161V26.9153C378.161 13.1081 389.354 1.91526 403.161 1.91526H410.776C423.7 1.91526 434.177 12.3924 434.177 25.3166C472.442 -8.40059 532.036 -8.44006 570.346 25.2056ZM143.13 129.765C137.392 137.242 130.283 143.648 122.29 148.647L143.13 197.517V129.765ZM424.152 51.9486V26.8828C424.152 18.5985 417.436 11.8828 409.152 11.8828H403.186C394.902 11.8828 388.186 18.5985 388.186 26.8828V83.3999H316.38V26.8828C316.38 18.5985 309.665 11.8828 301.38 11.8828H295.415C287.13 11.8828 280.415 18.5985 280.415 26.8828V175.551C280.415 183.835 287.13 190.551 295.415 190.551H301.38C309.665 190.551 316.38 183.835 316.38 175.551V119.158H388.186V175.551C388.186 183.835 394.902 190.551 403.186 190.551H409.152C417.436 190.551 424.152 183.835 424.152 175.551V151.979C458.876 204.616 545.688 205.371 580.371 152.039V175.551C580.371 183.835 587.087 190.551 595.371 190.551H601.337C609.621 190.551 616.337 183.835 616.337 175.551V154.792C649.208 154.792 683.006 157.396 706.789 129.853V175.551C706.789 183.835 713.505 190.551 721.789 190.551H814.975C823.259 190.551 829.975 183.835 829.975 175.551V154.792H757.755C749.471 154.792 742.755 148.077 742.755 139.792V134.158C742.755 125.874 749.471 119.158 757.755 119.158H786.779C795.063 119.158 801.779 112.443 801.779 104.158V98.3999C801.779 90.1156 795.063 83.3999 786.779 83.3999H757.755C749.471 83.3999 742.755 76.6841 742.755 68.3999V62.6413C742.755 54.3571 749.471 47.6413 757.755 47.6413H829.975V26.8828C829.975 18.5985 823.259 11.8828 814.975 11.8828H721.789C713.505 11.8828 706.789 18.5985 706.789 26.8828V37.0255C693.148 21.3415 673.146 12.0636 652.302 11.8828H595.371C587.087 11.8828 580.371 18.5985 580.371 26.8828V51.8892C544.213 -3.71029 460.437 -3.05295 424.152 51.9486ZM183.059 66.5611C183.059 74.8454 189.775 81.5611 198.059 81.5611H233.586C241.87 81.5611 248.586 88.2769 248.586 96.5611V106.26C248.586 114.544 241.87 121.26 233.586 121.26H198.059C189.775 121.26 183.059 127.976 183.059 136.26V145.82C183.059 154.104 189.775 160.82 198.059 160.82H270.389V41.8633H198.059C189.775 41.8633 183.059 48.579 183.059 56.8633V66.5611ZM39.9288 121.26H79.8565C127.414 121.26 131.082 41.8633 79.8565 41.8633H54.9288C46.6445 41.8633 39.9288 48.579 39.9288 56.8633V121.26Z" fill="white"/>
</svg>
