<svg width="150" height="150" viewBox="0 0 150 150" fill="none" xmlns="http://www.w3.org/2000/svg">
<path d="M103.475 80.6626L100.632 83.4939C100.632 83.4939 93.863 90.2189 75.3942 71.8564C56.9255 53.4939 63.6942 46.7689 63.6942 46.7689L65.4817 44.9814C69.9005 40.5939 70.3192 33.5439 66.463 28.3939L58.588 17.8751C53.813 11.5001 44.5942 10.6564 39.1255 16.0939L29.313 25.8439C26.6067 28.5439 24.7942 32.0314 25.013 35.9064C25.5755 45.8251 30.063 67.1564 55.088 92.0439C81.6317 118.431 106.538 119.481 116.719 118.531C119.944 118.231 122.744 116.594 125 114.344L133.875 105.519C139.875 99.5626 138.188 89.3439 130.513 85.1751L118.575 78.6814C113.538 75.9501 107.413 76.7501 103.475 80.6626Z" fill="black"/>
</svg>
